<svg width="64" height="64" viewBox="0 0 64 64" fill="none" xmlns="http://www.w3.org/2000/svg">
<rect width="64" height="64" rx="32" fill="#002E41"/>
<path d="M23.5352 26.0566C25.1867 26.0965 26.8021 26.4666 28.5713 26.9932C32.7338 28.2319 34.6161 30.646 37.3818 33.0117C41.1077 36.1986 43.9626 38.1902 46.334 43.0254C46.7476 43.8687 47.1587 44.615 47.5811 45.4287C47.9886 46.214 48.3887 47.0297 48.6943 47.876C49.3264 49.6264 49.5509 51.5078 48.7891 53.7109C48.1323 55.6102 47.3183 56.6034 46.0742 57.9102C45.8088 58.1889 45.6147 58.4168 45.3877 58.6738C45.1703 58.9198 44.9228 59.1924 44.6162 59.4561C43.9688 60.0127 43.1915 60.4204 41.9795 60.8369C40.6255 61.3023 38.6134 61.4972 36.4756 61.5C34.2947 61.5028 31.8249 61.3041 29.4756 60.8955C26.1777 60.322 23.8997 60.023 20.7158 58.1719C16.8606 55.9304 15.0564 53.7041 12.8691 50.0127C11.22 47.2293 10.1431 45.2706 9.80664 41.7637C9.51224 38.695 9.54549 36.4552 11.0771 33.4678C11.9161 31.8314 12.8661 30.5414 14.085 29.4883C15.2978 28.4403 16.7073 27.6861 18.3818 27.0332C20.2196 26.3167 21.8587 26.0162 23.5352 26.0566Z" stroke="#EBE6F6" stroke-width="3"/>
<path d="M50.2315 30.1792C48.2393 27.6285 46.3326 26.6826 43.2396 25.7298C39.7998 24.6702 37.3472 24.3498 34.023 25.7298C31.4986 26.7778 28.6202 30.1792 28.6202 30.1792C28.6202 30.1792 24.5293 34.3675 23.5352 37.8067C22.5848 41.0941 22.0389 43.5411 23.6338 46.5688C25.2612 49.6582 27.693 50.5217 31.0038 51.6316C35.91 53.2763 39.4728 52.4808 44.193 50.3603C46.7994 49.1895 48.4741 48.4817 50.2315 46.2288C52.0184 43.9378 52.5559 42.1341 52.774 39.2369C53.0497 35.5733 52.4929 33.0747 50.2315 30.1792Z" stroke="#EBE6F6" stroke-width="3"/>
<path d="M26.3748 14.6145C24.7288 16.1391 23.8175 17.4276 23.6338 19.6637C23.548 20.7085 23.5311 21.36 23.9223 22.3326C24.625 24.0795 25.9185 24.679 27.6732 25.3621C30.0118 26.2725 32.3162 25.7196 34.0929 25.0736C35.8696 24.4275 36.47 23.9545 37.4831 22.6932C38.2878 21.6914 38.7102 21.0027 38.9257 19.7358C39.1595 18.3613 39.006 17.4669 38.4208 16.2014C37.4584 14.1201 35.9474 13.259 33.7322 12.6669C32.2083 12.2596 31.2123 12.2431 29.6929 12.6669C28.2456 13.0706 27.4771 13.5935 26.3748 14.6145Z" stroke="#EBE6F6" stroke-width="3"/>
<path d="M29.6208 11.1522C30.4321 11.5118 30.9893 11.514 31.8741 11.446C32.7749 11.3767 34.0929 10.7916 34.0929 10.7916C34.0929 10.7916 34.719 10.3397 34.9585 9.926C35.4243 9.12152 35.1986 8.4437 34.9585 7.54566C34.694 6.55621 34.3075 6.03856 33.588 5.30958C32.9459 4.65899 32.5468 4.12957 31.6405 4.01121C30.8271 3.905 29.6208 4.58827 29.6208 4.58827C29.6208 4.58827 28.1178 5.40407 27.6732 6.31943C27.1189 7.46079 27.1975 8.45826 27.8175 9.56535C28.2758 10.3838 28.7631 10.7722 29.6208 11.1522Z" stroke="#EBE6F6" stroke-width="3"/>
</svg>
